<svg width="512" height="512" viewBox="0 0 512 512" fill="none" xmlns="http://www.w3.org/2000/svg">
<path d="M256 0C114.615 0 0 114.615 0 256C0 397.385 114.615 512 256 512C397.385 512 512 397.385 512 256C512 114.615 397.385 0 256 0ZM256 480C132.288 480 32 379.712 32 256C32 132.288 132.288 32 256 32C379.712 32 480 132.288 480 256C480 379.712 379.712 480 256 480Z" fill="white"/>
<path d="M176 208C193.673 208 208 193.673 208 176C208 158.327 193.673 144 176 144C158.327 144 144 158.327 144 176C144 193.673 158.327 208 176 208Z" fill="white"/>
<path d="M336 208C353.673 208 368 193.673 368 176C368 158.327 353.673 144 336 144C318.327 144 304 158.327 304 176C304 193.673 318.327 208 336 208Z" fill="white"/>
<path d="M256 240C176.471 240 112 304.471 112 384H144C144 322.144 194.144 272 256 272C317.856 272 368 322.144 368 384H400C400 304.471 335.529 240 256 240Z" fill="white"/>
</svg>
